<?xml version="1.0" encoding="utf-8"?>
<!-- Generator: Adobe Illustrator 16.0.4, SVG Export Plug-In . SVG Version: 6.00 Build 0)  -->
<!DOCTYPE svg PUBLIC "-//W3C//DTD SVG 1.1//EN" "http://www.w3.org/Graphics/SVG/1.1/DTD/svg11.dtd">
<svg version="1.1" id="Layer_1" xmlns="http://www.w3.org/2000/svg" xmlns:xlink="http://www.w3.org/1999/xlink" x="0px" y="0px"
	 width="900px" height="900px" viewBox="0 0 900 900" enable-background="new 0 0 900 900" xml:space="preserve">
<path d="M409.131,151.263h48.006c2.269,0,4.131-1.863,4.131-4.131c0-2.277-1.862-4.14-4.131-4.14h-48.006
	c-2.286,0-4.131,1.863-4.131,4.14C405,149.409,406.845,151.263,409.131,151.263z"/>
<circle cx="384.273" cy="147.123" r="3.942"/>
<circle cx="413.667" cy="505.26" r="12.933"/>
<path d="M873.207,722.781L812.7,636.858c5.463-151.426-53.812-212.445-66.475-223.723l-57.96-95.184
	c-10.638-17.82-36.225-22.194-57.113-9.72c-5.022,3.015-9.388,6.786-12.96,11.088c-8.865-10.953-24.21-15.291-39.492-11.907
	c4.869-14.103,5.354-26.523,1.305-37.071c-6.858-17.802-23.202-22.5-24.714-22.896c-10.603-3.024-19.989-1.188-27.811,2.844V141.453
	c0-19.476-15.84-35.325-35.334-35.325h-156.96c-19.493,0-35.343,15.849-35.343,35.325v96.255
	c-35.154-5.427-57.816,44.694-60.39,50.724c-25.056,58.482-43.956,147.348-26.253,204.3c16.533,53.1,3.195,79.722,1.845,82.232
	l-7.614,9.945l-4.932-2.862c-5.724-3.312-12.969-2.241-17.514,2.565L19.125,760.644c-3.897,4.149-4.95,10.206-2.7,15.427
	c2.25,5.229,7.389,8.604,13.077,8.604h284.535c4.779,0,9.225-2.394,11.871-6.363l51.471-77.472c1.692-2.538,2.475-5.562,2.331-8.559
	c31.365-11.259,67.077-35.748,106.596-73.134c48.556,55.7,121.743,104.282,144.612,118.826v41.607
	c0,7.875,6.381,14.247,14.247,14.247c7.875,0,14.247-6.372,14.247-14.247v-49.5c0-4.977-2.583-9.594-6.84-12.186
	c-48.411-29.476-175.645-120.394-182.817-186.066c-1.296-11.826,1.647-22.194,8.793-31.473l27.811,47.15
	c2.663,4.519,7.397,7.011,12.284,7.011c2.448,0,4.95-0.63,7.228-1.988c6.768-3.987,9.009-12.718,5.031-19.494L403.128,316.332
	c-0.918-1.53-0.711-3.474-0.378-4.824c1.035-4.113,4.392-8.208,8.982-10.962c7.641-4.554,15.812-3.825,18.18,0.126l34.56,55.233
	c0.792,2.628,1.917,5.148,3.366,7.542l80.604,126.675c0.062,0.099,0.152,0.153,0.207,0.234c0.558,0.854,1.232,1.61,1.935,2.321
	c0.243,0.226,0.531,0.459,0.792,0.676c0.576,0.504,1.188,0.927,1.845,1.313c0.297,0.189,0.595,0.369,0.937,0.531
	c0.747,0.378,1.512,0.666,2.331,0.909c0.216,0.071,0.432,0.162,0.657,0.216c1.017,0.243,2.061,0.369,3.113,0.387
	c0.09,0,0.153,0.027,0.234,0.027c0.171,0,0.36-0.063,0.521-0.063c0.937-0.054,1.882-0.18,2.809-0.414
	c0.324-0.072,0.639-0.144,0.936-0.233c1.134-0.378,2.224-0.811,3.268-1.458c0.018-0.019,0.036-0.019,0.036-0.036
	c0.026,0,0.045,0,0.045-0.019c0.404-0.261,0.756-0.594,1.143-0.899c0.352-0.279,0.774-0.549,1.089-0.855
	c0.352-0.359,0.648-0.765,0.981-1.134c0.278-0.342,0.576-0.639,0.828-0.99c0.288-0.414,0.521-0.882,0.737-1.313
	c0.207-0.352,0.441-0.721,0.612-1.089c0.189-0.459,0.324-0.945,0.477-1.423c0.127-0.396,0.288-0.765,0.388-1.179
	c0.117-0.504,0.135-1.008,0.188-1.512c0.055-0.405,0.145-0.783,0.145-1.188c0.018-0.54-0.055-1.08-0.09-1.61
	c-0.036-0.388-0.019-0.756-0.091-1.135c-0.09-0.558-0.252-1.089-0.423-1.629c-0.107-0.351-0.162-0.729-0.297-1.089
	c-0.188-0.495-0.477-0.963-0.702-1.449c-0.207-0.359-0.333-0.737-0.549-1.098l-0.054-0.081l0,0v-0.018l-81.081-129.564
	c0.099-1.17,0.414-2.286,0.711-3.042c1.395-3.663,4.509-7.155,8.522-9.558c4.06-2.43,8.577-3.528,12.475-3.015
	c1.539,0.189,4.311,0.828,5.769,3.24l80.641,126.666c1.008,1.584,2.304,2.89,3.744,3.924l1.286,2.115
	c2.7,4.401,7.381,6.85,12.187,6.85c2.528,0,5.085-0.676,7.397-2.089c6.715-4.076,8.856-12.852,4.762-19.557l-59.148-97.209
	c-0.918-1.53-0.702-3.474-0.351-4.833c1.017-4.113,4.355-8.217,8.964-10.962c7.632-4.545,15.804-3.825,18.072-0.027l59.201,97.254
	c0.792,1.296,1.791,2.357,2.881,3.294l13.473,22.157c4.086,6.715,12.861,8.848,19.575,4.762c6.731-4.096,8.847-12.853,4.761-19.575
	l-59.148-97.2c-1.232-2.061-0.477-4.797,0.091-6.237c1.377-3.663,4.5-7.155,8.522-9.558c7.623-4.545,15.813-3.816,18.072-0.027
	l59.202,97.263c0.927,1.476,2.088,2.79,3.465,3.852c0.63,0.495,64.44,51.75,57.519,206.73c-0.152,3.158,0.774,6.255,2.574,8.819
	l63.279,89.865c2.79,3.942,7.182,6.039,11.682,6.039c2.809,0,5.688-0.846,8.172-2.592
	C876.204,738.099,877.743,729.207,873.207,722.781z M530.91,285.291c0.072-0.126,7.73-12.969,16.542-10.449
	c0.45,0.153,4.5,1.566,6.065,6.012c1.287,3.618,2.548,14.121-10.952,36.225c-3.601-5.589-8.82-9.945-15.084-12.699v-15.066
	C528.84,288.225,530.019,286.893,530.91,285.291z M335.196,134.622h156.96c3.771,0,6.849,3.06,6.849,6.831v15.543H328.347v-15.543
	C328.347,137.682,331.416,134.622,335.196,134.622z M441.009,524.934H335.196c-3.771,0-6.84-3.051-6.84-6.83v-32.05h125.288
	C445.464,497.754,441.252,510.759,441.009,524.934z M306.396,756.18H62.487L197.991,612.36l5.994,3.482l0,0l20.574,11.925
	l120.699,69.931L306.396,756.18z M354.096,669.888l-50.832-29.457L232.29,599.31l5.823-7.613c0.207-0.252,0.387-0.522,0.558-0.783
	c2.439-3.681,23.148-37.827,1.737-106.65c-14.877-47.835,1.431-129.078,25.218-184.608c6.507-15.03,20.664-34.911,30.186-33.741
	c1.98,2.466,11.079,17.739-6.984,74.052c-0.756,2.358-0.882,4.896-0.369,7.326l10.395,48.645c0.234,1.017,0.567,2.007,0.981,2.925
	v119.24c0,19.485,15.849,35.325,35.343,35.325H445.59c4.68,14.382,12.708,28.962,22.941,43.309
	C423.954,639.225,384.561,664.425,354.096,669.888z M486.018,308.232c-4.445,2.673-8.396,5.958-11.727,9.675l-20.07-32.094
	c-10.656-17.802-36.261-22.167-57.113-9.711c-11.115,6.66-19.125,17.055-21.996,28.503c-2.322,9.315-1.044,18.684,3.537,26.316
	l74.673,126.648H328.347V185.49h170.649v117.243C494.523,303.939,490.167,305.757,486.018,308.232z"/>
<g>
	
		<rect x="435.753" y="71.173" transform="matrix(0.7071 -0.7071 0.7071 0.7071 -186.3961 450)" fill="#BF1919" width="28.494" height="757.654"/>
	
		<rect x="435.753" y="80.653" transform="matrix(0.7071 0.7071 -0.7071 0.7071 450.0002 -186.396)" fill="#BF1919" width="28.494" height="738.694"/>
</g>
</svg>
